HIERARCHY
ROOT pelvis
{
	OFFSET 0.003123 -0.351407 0.012037
	CHANNELS 6 Xposition Yposition Zposition Zrotation Yrotation Xrotation 
	JOINT left_hip
	{
		OFFSET 0.058189 -0.092763 -0.026001
		CHANNELS 3 Zrotation Yrotation Xrotation
		JOINT left_knee
		{
			OFFSET 0.054695 -0.378753 -0.009396
			CHANNELS 3 Zrotation Yrotation Xrotation
			JOINT left_ankle
			{
				OFFSET -0.043453 -0.403059 -0.031876
				CHANNELS 3 Zrotation Yrotation Xrotation
				JOINT left_foot
				{
					OFFSET 0.047257 -0.057997 0.118216
					CHANNELS 3 Zrotation Yrotation Xrotation
					End Site
					{
						OFFSET 0.000000 0.000000 0.000000
					}
				}
			}
		}
	}
	JOINT right_hip
	{
		OFFSET -0.063267 -0.103908 -0.021250
		CHANNELS 3 Zrotation Yrotation Xrotation
		JOINT right_knee
		{
			OFFSET -0.044210 -0.362380 -0.016824
			CHANNELS 3 Zrotation Yrotation Xrotation
			JOINT right_ankle
			{
				OFFSET 0.015417 -0.410728 -0.020192
				CHANNELS 3 Zrotation Yrotation Xrotation
				JOINT right_foot
				{
					OFFSET -0.038812 -0.058328 0.119049
					CHANNELS 3 Zrotation Yrotation Xrotation
					End Site
					{
						OFFSET 0.000000 0.000000 0.000000
					}
				}
			}
		}
	}
	JOINT spine_1
	{
		OFFSET -0.002763 0.109891 -0.027618
		CHANNELS 3 Zrotation Yrotation Xrotation
		JOINT spine_2
		{
			OFFSET 0.009448 0.131853 -0.005940
			CHANNELS 3 Zrotation Yrotation Xrotation
			JOINT spine_3
			{
				OFFSET -0.011330 0.052235 0.028447
				CHANNELS 3 Zrotation Yrotation Xrotation
				JOINT neck
				{
					OFFSET -0.012164 0.165167 -0.031615
					CHANNELS 3 Zrotation Yrotation Xrotation
					JOINT head
					{
						OFFSET 0.024783 0.160452 0.020737
						CHANNELS 3 Zrotation Yrotation Xrotation
						End Site
						{
							OFFSET 0.000000 0.000000 0.000000
						}
					}
				}
				JOINT left_collar
				{
					OFFSET 0.046364 0.084944 -0.007220
					CHANNELS 3 Zrotation Yrotation Xrotation
					JOINT left_shoulder
					{
						OFFSET 0.119239 0.057728 -0.015461
						CHANNELS 3 Zrotation Yrotation Xrotation
						JOINT left_elbow
						{
							OFFSET 0.254123 -0.072151 -0.042459
							CHANNELS 3 Zrotation Yrotation Xrotation
							JOINT left_wrist
							{
								OFFSET 0.251987 0.023221 -0.002472
								CHANNELS 3 Zrotation Yrotation Xrotation
								JOINT left_index_1
								{
									OFFSET 0.101902 -0.008688 0.019351
									CHANNELS 3 Zrotation Yrotation Xrotation
									JOINT left_index_2
									{
										OFFSET 0.030149 -0.011154 0.001151
										CHANNELS 3 Zrotation Yrotation Xrotation
										JOINT left_index_3
										{
											OFFSET 0.006504 -0.021577 -0.002433
											CHANNELS 3 Zrotation Yrotation Xrotation
											End Site
											{
												OFFSET 0.000000 0.000000 0.000000
											}
										}
									}
								}
								JOINT left_middle_1
								{
									OFFSET 0.109398 -0.006328 -0.003981
									CHANNELS 3 Zrotation Yrotation Xrotation
									JOINT left_middle_2
									{
										OFFSET 0.026472 -0.015218 -0.004641
										CHANNELS 3 Zrotation Yrotation Xrotation
										JOINT left_middle_3
										{
											OFFSET 0.005022 -0.023347 -0.001911
											CHANNELS 3 Zrotation Yrotation Xrotation
											End Site
											{
												OFFSET 0.000000 0.000000 0.000000
											}
										}
									}
								}
								JOINT left_pinky_1
								{
									OFFSET 0.084047 -0.014539 -0.043750
									CHANNELS 3 Zrotation Yrotation Xrotation
									JOINT left_pinky_2
									{
										OFFSET 0.012124 -0.014448 -0.005375
										CHANNELS 3 Zrotation Yrotation Xrotation
										JOINT left_pinky_3
										{
											OFFSET 0.003798 -0.018853 0.000167
											CHANNELS 3 Zrotation Yrotation Xrotation
											End Site
											{
												OFFSET 0.000000 0.000000 0.000000
											}
										}
									}
								}
								JOINT left_ring_1
								{
									OFFSET 0.097444 -0.009268 -0.027345
									CHANNELS 3 Zrotation Yrotation Xrotation
									JOINT left_ring_2
									{
										OFFSET 0.023561 -0.016057 -0.001895
										CHANNELS 3 Zrotation Yrotation Xrotation
										JOINT left_ring_3
										{
											OFFSET 0.004257 -0.023548 0.000814
											CHANNELS 3 Zrotation Yrotation Xrotation
											End Site
											{
												OFFSET 0.000000 0.000000 0.000000
											}
										}
									}
								}
								JOINT left_thumb_1
								{
									OFFSET 0.040636 -0.017977 0.025611
									CHANNELS 3 Zrotation Yrotation Xrotation
									JOINT left_thumb_2
									{
										OFFSET 0.021637 -0.017639 0.011623
										CHANNELS 3 Zrotation Yrotation Xrotation
										JOINT left_thumb_3
										{
											OFFSET 0.024002 -0.008356 0.006548
											CHANNELS 3 Zrotation Yrotation Xrotation
											End Site
											{
												OFFSET 0.000000 0.000000 0.000000
											}
										}
									}
								}
							}
						}
					}
				}
				JOINT right_collar
				{
					OFFSET -0.047695 0.084339 -0.013400
					CHANNELS 3 Zrotation Yrotation Xrotation
					JOINT right_shoulder
					{
						OFFSET -0.102578 0.053524 -0.012669
						CHANNELS 3 Zrotation Yrotation Xrotation
						JOINT right_elbow
						{
							OFFSET -0.271150 -0.036492 -0.026467
							CHANNELS 3 Zrotation Yrotation Xrotation
							JOINT right_wrist
							{
								OFFSET -0.249267 -0.004533 -0.015325
								CHANNELS 3 Zrotation Yrotation Xrotation
								JOINT right_index_1
								{
									OFFSET -0.099881 -0.011783 0.019600
									CHANNELS 3 Zrotation Yrotation Xrotation
									JOINT right_index_2
									{
										OFFSET -0.030148 -0.011154 0.001151
										CHANNELS 3 Zrotation Yrotation Xrotation
										JOINT right_index_3
										{
											OFFSET -0.006505 -0.021577 -0.002432
											CHANNELS 3 Zrotation Yrotation Xrotation
											End Site
											{
												OFFSET 0.000000 0.000000 0.000000
											}
										}
									}
								}
								JOINT right_middle_1
								{
									OFFSET -0.107376 -0.009422 -0.003734
									CHANNELS 3 Zrotation Yrotation Xrotation
									JOINT right_middle_2
									{
										OFFSET -0.026472 -0.015218 -0.004641
										CHANNELS 3 Zrotation Yrotation Xrotation
										JOINT right_middle_3
										{
											OFFSET -0.005022 -0.023347 -0.001911
											CHANNELS 3 Zrotation Yrotation Xrotation
											End Site
											{
												OFFSET 0.000000 0.000000 0.000000
											}
										}
									}
								}
								JOINT right_pinky_1
								{
									OFFSET -0.082027 -0.017634 -0.043503
									CHANNELS 3 Zrotation Yrotation Xrotation
									JOINT right_pinky_2
									{
										OFFSET -0.012123 -0.014448 -0.005374
										CHANNELS 3 Zrotation Yrotation Xrotation
										JOINT right_pinky_3
										{
											OFFSET -0.003798 -0.018852 0.000167
											CHANNELS 3 Zrotation Yrotation Xrotation
											End Site
											{
												OFFSET 0.000000 0.000000 0.000000
											}
										}
									}
								}
								JOINT right_ring_1
								{
									OFFSET -0.095423 -0.012362 -0.027099
									CHANNELS 3 Zrotation Yrotation Xrotation
									JOINT right_ring_2
									{
										OFFSET -0.023561 -0.016057 -0.001895
										CHANNELS 3 Zrotation Yrotation Xrotation
										JOINT right_ring_3
										{
											OFFSET -0.004257 -0.023548 0.000816
											CHANNELS 3 Zrotation Yrotation Xrotation
											End Site
											{
												OFFSET 0.000000 0.000000 0.000000
											}
										}
									}
								}
								JOINT right_thumb_1
								{
									OFFSET -0.038613 -0.021074 0.025861
									CHANNELS 3 Zrotation Yrotation Xrotation
									JOINT right_thumb_2
									{
										OFFSET -0.021636 -0.017639 0.011623
										CHANNELS 3 Zrotation Yrotation Xrotation
										JOINT right_thumb_3
										{
											OFFSET -0.024004 -0.008353 0.006547
											CHANNELS 3 Zrotation Yrotation Xrotation
											End Site
											{
												OFFSET 0.000000 0.000000 0.000000
											}
										}
									}
								}
							}
						}
					}
				}
			}
		}
	}
}
MOTION
Frames: 4
Frame Time: 0.050000
0.892319 0.930947 0.475746 -0.352945 -27.566173 -5.235834 -46.248782 3.899270 -5.605790 42.926964 -0.734761 0.274089 -27.612070 41.295036 100.892971 0.000000 0.000000 0.000000 38.551109 2.060172 -0.782979 -32.284490 -0.857478 -16.734569 24.052545 -12.384887 128.088543 0.000000 0.000000 0.000000 -1.224992 -0.196484 29.357362 -9.314603 -5.995090 -50.040152 -0.602354 -24.460451 35.717406 8.037110 1.044742 -11.286910 0.000000 0.000000 0.000000 105.068764 -31.027985 31.392291 153.599785 -32.504552 -5.495948 -131.120885 57.622133 -139.103972 21.926598 -11.131895 -7.425558 16.163859 35.302819 19.737986 78.904082 -3.786524 -19.373588 0.000000 0.000000 0.000000 8.280267 -16.149190 -8.747455 88.301662 -10.502202 -5.323092 0.000000 0.000000 0.000000 63.281676 -31.797581 -83.836644 41.584821 -2.510806 15.854162 0.000000 0.000000 0.000000 31.512954 -37.874895 -38.078676 68.631818 -2.174449 6.302185 0.000000 0.000000 0.000000 89.231226 29.662740 66.306581 -21.170486 -20.823561 2.145448 0.000000 0.000000 0.000000 -106.773032 -49.560648 -2.074688 -119.716258 -57.751675 87.853170 148.991222 -50.921729 -110.460649 -9.621235 3.345784 63.330400 20.480950 -13.281753 -1.295141 -53.711543 3.381452 14.072058 0.000000 0.000000 0.000000 -10.374847 5.856822 -2.776216 -34.411830 -1.581427 35.328512 0.000000 0.000000 0.000000 -79.994195 -2.577986 -32.513863 -25.320812 -7.714476 44.425499 0.000000 0.000000 0.000000 -36.664899 2.956956 -12.967705 -31.819407 -8.795743 40.170185 0.000000 0.000000 0.000000 -5.314599 -48.073391 30.707378 11.808047 22.062617 -2.582248 0.000000 0.000000 0.000000 
0.896088 0.932720 0.471786 -0.320396 -16.747292 -4.087958 -46.703841 3.645055 -2.231525 43.160150 -1.099195 -1.357055 -24.561730 35.866386 101.788491 0.000000 0.000000 0.000000 37.213082 3.348194 -6.450992 -34.918460 -1.000718 -12.974932 30.539084 -17.516305 122.750944 0.000000 0.000000 0.000000 1.122674 -1.396854 29.645562 -13.716511 -6.294396 -46.643963 5.000778 -19.999573 29.081319 7.846423 1.233254 -11.633411 0.000000 0.000000 0.000000 116.225334 -22.899284 24.550295 143.092035 -27.232189 13.336570 -128.137690 51.897534 -121.778780 22.682325 -13.174725 19.523404 -2.546874 38.272804 11.027352 77.822763 -3.272915 -4.714432 0.000000 0.000000 0.000000 16.638589 -13.163567 -7.425854 85.518223 -11.746338 22.916785 0.000000 0.000000 0.000000 75.136375 -15.004120 -82.980019 44.003171 -2.933605 21.031222 0.000000 0.000000 0.000000 46.539150 -26.938303 -41.077094 70.670405 -2.909709 20.054718 0.000000 0.000000 0.000000 78.436079 45.093353 78.504102 -18.606907 -21.864832 0.761663 0.000000 0.000000 0.000000 -126.437686 -40.559472 11.689009 -106.921480 -51.149769 77.248627 159.018401 -21.869637 -89.562463 -6.629414 0.610689 61.338450 17.138890 -10.442170 -0.608551 -46.716913 4.458540 10.548912 0.000000 0.000000 0.000000 -9.348371 4.639312 -1.862575 -27.418719 0.955505 27.952946 0.000000 0.000000 0.000000 -73.363565 -0.017032 -25.379931 -17.810789 -12.135595 44.852705 0.000000 0.000000 0.000000 -32.087801 2.216201 -9.808455 -22.926878 -8.513535 34.037838 0.000000 0.000000 0.000000 -0.732611 -40.186707 25.508913 11.888871 20.336973 -1.836212 0.000000 0.000000 0.000000 
0.896088 0.933687 0.471786 -0.248775 -20.736885 -4.031335 -46.601650 3.133487 -4.536122 42.860845 -1.618383 0.485623 -27.629731 36.167682 99.195436 0.000000 0.000000 0.000000 37.571461 3.193273 -5.104889 -33.990481 -0.876934 -13.978270 28.498596 -15.484549 124.052275 0.000000 0.000000 0.000000 1.348660 -1.204025 29.775870 -15.627220 -5.827200 -46.957569 6.761068 -20.129379 29.166875 7.145203 1.451374 -12.558785 0.000000 0.000000 0.000000 115.144269 -22.737179 27.522764 142.494937 -27.375170 22.822452 -124.389508 41.428402 -106.272989 23.370027 -13.811740 34.924079 -8.621802 34.866310 6.764551 72.550792 -3.798451 2.492908 0.000000 0.000000 0.000000 17.238759 -10.694699 -5.838277 72.115379 -8.689775 37.531441 0.000000 0.000000 0.000000 82.916687 -5.726300 -73.493017 43.602345 -3.050163 27.920943 0.000000 0.000000 0.000000 49.448350 -19.823813 -36.338006 71.000756 -3.415480 34.436090 0.000000 0.000000 0.000000 63.265908 52.922835 73.574691 -16.519486 -21.266095 -0.114961 0.000000 0.000000 0.000000 -126.135159 -39.318216 7.633174 -111.529916 -48.294297 77.668207 160.859704 -19.942507 -87.515129 -8.962757 -0.326543 62.748044 17.290135 -8.948606 -1.209573 -44.685885 3.929018 12.930055 0.000000 0.000000 0.000000 -9.130718 5.779472 -2.683311 -25.715397 -0.758336 29.555592 0.000000 0.000000 0.000000 -72.529156 -1.470309 -22.550711 -15.051220 -12.598012 42.345185 0.000000 0.000000 0.000000 -31.710784 1.690714 -10.021684 -23.434491 -9.731523 36.509568 0.000000 0.000000 0.000000 0.247104 -39.867959 24.442346 11.421931 20.110283 -1.936210 0.000000 0.000000 0.000000 
0.892319 0.933687 0.470467 1.186754 -28.237142 -4.488580 -46.979743 2.694443 -8.395473 42.126138 -1.900618 2.512508 -31.852817 37.772858 96.136274 0.000000 0.000000 0.000000 37.191932 2.678123 -2.527095 -32.349791 -0.567191 -15.920756 24.813864 -11.483185 126.649166 0.000000 0.000000 0.000000 -2.897881 0.206026 28.655957 -13.417844 -5.520933 -46.983244 7.289849 -22.150109 30.355082 6.484913 1.542272 -13.132173 0.000000 0.000000 0.000000 109.257028 -26.855616 31.461281 145.784530 -30.658322 18.815152 -123.021203 41.478098 -108.932734 23.152650 -14.010339 29.930195 -7.616224 34.990733 7.819272 76.290590 -5.560808 5.858700 0.000000 0.000000 0.000000 17.703406 -11.839001 -6.613194 76.822341 -11.409644 34.115213 0.000000 0.000000 0.000000 81.491275 -8.835840 -78.071785 43.738643 -3.312440 26.247544 0.000000 0.000000 0.000000 49.352163 -23.070192 -39.263144 73.379153 -4.505124 30.175619 0.000000 0.000000 0.000000 71.682107 49.934605 78.868352 -16.239168 -21.995891 -0.362263 0.000000 0.000000 0.000000 -121.935055 -44.809997 1.744413 -113.933904 -49.838922 78.821249 162.643407 -20.648914 -89.150645 -8.312400 0.319379 62.706704 16.740385 -8.322723 -1.289356 -44.523280 4.020452 12.868199 0.000000 0.000000 0.000000 -9.183349 4.596787 -1.894552 -28.081623 0.950314 28.526906 0.000000 0.000000 0.000000 -72.031129 -1.507088 -23.182138 -13.951273 -12.912145 41.585560 0.000000 0.000000 0.000000 -30.898536 0.186334 -8.160020 -22.817337 -7.799581 31.510144 0.000000 0.000000 0.000000 0.510358 -38.772945 23.777580 11.164137 19.990260 -1.932645 0.000000 0.000000 0.000000 
